<svg xmlns="http://www.w3.org/2000/svg" viewBox="0 0 1200 1200"><path d="M149.4 1039.9h-3.1c0-1.6-.4-3.9-.4-4.3 0-.8 0-2.3-2.3-2.3H139v6.6h-2v-15.6h6.6c2.7 0 5.1.8 5.1 3.5 0 2.3-.8 3.1-1.6 3.9.8.8 1.6 1.6 1.6 3.1v2.7c0 .8 0 .8.8.8v1.6zm-3.2-11.3c0-1.9-1.2-1.9-1.9-1.9h-5.4v4.3h4.6c1.6-.1 2.7-.8 2.7-2.4m12.9 3.1c0-9-7.4-16.4-17.1-16.4-8.9 0-16.3 7.4-16.3 16.4 0 9.7 7.4 17.1 16.3 17.1 9.7.1 17.1-7.3 17.1-17.1m-2.3 0c0 8.2-6.6 14-14.8 14-8.2 0-14-5.8-14-14 0-7.4 5.8-14 14-14 8.1 0 14.8 6.6 14.8 14m917.6-301.4c0 22.2-14.4 32.7-39.6 32.7h-48.2v-22.2h48.2c4.7 0 8.2-.8 9.7-2.3 1.6-1.6 3.1-3.9 3.1-6.6 0-3.1-1.5-6.2-3.1-7.4-1.6-1.6-4.3-2.3-8.9-2.3-22.9-.8-52.1.8-52.1-32.3 0-14.8 9.7-31.2 35.8-31.2h49.8v22.2H1023c-4.7 0-7.8 0-9.7 1.6-2.3 2.3-3.9 4.7-3.9 8.2 0 3.9 2.3 6.2 5 7.4 3.1.8 6.2 1.6 9.7 1.6h13.6c14 0 22.9 3.1 29.2 8.2 4.3 5.2 7.5 11.9 7.5 22.4m-105-22.6c-6.2-5.1-15.2-8.2-29.1-8.2h-13.6c-3.5 0-6.6-.8-9.7-1.6-2.7-1.2-5.1-3.5-5.1-7.4 0-3.5.8-5.8 3.9-8.2 1.9-1.6 5-1.6 9.7-1.6h45.9v-22.2h-49.8c-26.8 0-35.8 16.4-35.8 31.2 0 33.1 29.1 31.5 52.1 32.3 4.7 0 7.4.8 8.9 2.3 1.5 1.2 3.1 4.3 3.1 7.4 0 2.7-1.6 5.1-3.1 6.6-2.3 1.6-5.1 2.3-9.7 2.3H889V763h48.2c25.3 0 39.6-10.5 39.6-32.7 0-10.5-3.1-17.2-7.4-22.6m-95.6 33.9h-58.7v-21h57.5v-21h-57.5v-19.1h58.7v-21.8h-83.2V763h83.2v-21.4zm-110-77.9c-8.2-4.3-17.9-5.1-30.7-5.1H676V763h25.3v-38.2h26.8c8.9 0 14 .8 17.9 4.7 4.3 5.1 4.3 14 4.3 21V763h24.9v-20.3c0-9.3-.8-14-3.9-19.1-2.3-3.1-6.6-7-12.8-9 7-2.3 17.9-11.3 17.9-27.6-.1-12-4.4-18.6-12.6-23.3m-141.5-5.1h-79.7l-32.3 34.3-30.3-34.3H379.4V763h99.1l31.9-34.3 30.7 34.3h48.2v-35.1h31.5c21.4 0 43.1-5.8 43.1-35.1 0-28.3-22.1-34.2-41.6-34.2m121.3 43.2c-3.9 1.6-7.4 1.6-12 1.6l-30.3.8v-23.8h30.3c4.7 0 8.9 0 12 1.9 3.1 1.6 5 4.7 5 9 .1 4.7-1.9 8.2-5 10.5m-121.3 5.1h-33v-26.5h33c9 0 14.8 3.5 14.8 12.5 0 8.9-5.8 14-14.8 14m-96 3.9l38.5-40.9V754l-38.5-43.2zm-60.6 30.8h-61.8v-21h55.2v-21h-55.2v-19.1h62.6l27.6 30.4-28.4 30.7zm539.5-158.5h-35.8l-47-78.3v78.3h-50.5l-9.7-23h-52.1l-9.7 23h-29.1c-12 0-27.6-2.7-36.5-11.7-8.2-9-12.8-21-12.8-39.7.4-15.6 2.3-29.6 13.6-40.9 7.4-8.2 21-12.1 38.1-12.1h23.7v22.6h-23.7c-8.9 0-14.4 1.6-19.4 5.8-4.7 4.7-6.6 12.9-6.6 23.8 0 11.3 2 19.5 6.6 24.9 3.5 3.5 10.5 5.1 17.1 5.1h11.3l35.8-82.2h36.9l42 98.5v-98.5h38.5l43.9 72.4v-72.4h25.7v104.4zM709.4 478.7h-25.2v104.4h25.2V478.7zm-52.8 4.7c-8.2-4.7-17.1-4.7-29.9-4.7h-57.1v104.4H594v-37.8h26.8c8.9 0 14.8.8 18.7 4.3 4.3 5.5 3.5 14.4 3.5 20.2V583h25.6v-20.6c0-9-.8-13.6-4.7-18.7-2.3-3.1-6.6-6.6-12-8.9 7-3.1 17.9-11.3 17.9-27.7 0-12.1-5.1-18.7-13.2-23.7m-105 78.2h-58.3v-21h57.5v-21.4h-57.5v-18.7h58.3v-21.8H468v104.4h83.6v-21.5zm-102.2-82.9h-40.8l-30.7 70.9-32.6-70.9h-40v98.5l-42.8-98.5h-36.9l-44.7 104.4h26.8l9.3-23h52.5l9.3 23h50.9v-81.8l36.5 81.8h21.4l36.5-81.8v81.8h25.2V478.7zm403.8 59.2l-17.1-41.3-17.1 41.3h34.2zm-216.1-16.8c-3.9 2.3-7.4 2.3-12.4 2.3H594v-23h30.7c4.3 0 9.3 0 12.4 1.6 3.1 2 4.7 5.1 4.7 9.7 0 4.4-1.6 8.3-4.7 9.4m-411.2 16.8l17.5-41.3 17.1 41.3h-34.6zm842.2-386.8h-888v376.2l30.3-69.3h64.9l8.9 17.1V458H360l17.1 37 16.7-37h241.7c11.3 0 21 2 28.4 8.2V458h66.5v8.2c10.9-6.2 25.3-8.2 41.6-8.2h96l8.9 17.1V458h70.7l10.5 17.1V458h69.2v146.1h-69.9l-13.6-22.2v22.2h-87.1l-9.7-23.8h-21.4l-9.7 23.8h-45.5c-17.9 0-31.1-4.3-40-9v9h-108v-33.5c0-4.7-.8-5.4-3.9-5.4H615v39H406.3v-18.7l-7.4 18.7H355l-7.4-17.9v17.9h-84.3l-8.9-23.8H233l-9.7 23.8h-43.1V1045h888.1V777.4c-9.3 4.3-22.9 6.6-36.1 6.6h-64.9v-9c-7.4 5.8-21 9-33.4 9h-204v-33.5c0-4.7-.8-4.7-4.7-4.7h-3.5V784h-67.2v-39.7c-11.3 5.4-23.7 5.4-35 5.4h-7.4V784h-82l-19.4-22.6L489 784H357.3V637.6h134.1l19.1 22.6 21-22.6h90.2c10.5 0 27.6 1.6 35 9v-9H737c8.1 0 23.7 1.6 34.2 9v-9h121.3v9c7-5.8 19.4-9 30.7-9h67.6v9c7.4-5.1 17.9-9 31.5-9h45.9V151.1z" fill-rule="evenodd" clip-rule="evenodd" fill="#0078a9"/></svg>